<svg xmlns="http://www.w3.org/2000/svg" xmlns:xlink="http://www.w3.org/1999/xlink" width="44.489" height="28.612" viewBox="0 0 44.489 28.612">
  <defs>
    <clipPath id="clip-path">
      <rect id="Rectangle_2940" data-name="Rectangle 2940" width="44.489" height="28.612" transform="translate(0 -10)" fill="#ce0e2d"/>
    </clipPath>
  </defs>
  <g id="Group_6040" data-name="Group 6040" transform="translate(0 10)">
    <g id="Group_6039" data-name="Group 6039" transform="translate(0 0)" clip-path="url(#clip-path)">
      <path id="Path_7700" data-name="Path 7700" d="M16.659,4.908a4.8,4.8,0,1,1-9.6.038,4.8,4.8,0,1,1,9.6-.038" transform="translate(-2.911 1.033)" fill="#ce0e2d"/>
      <path id="Path_7701" data-name="Path 7701" d="M41.273,20.105V16.632c-.489,0-.875.01-1.261,0a2.687,2.687,0,0,1-2.762-2.752q-.036-3.525,0-7.05a2.69,2.69,0,0,1,2.773-2.75q4.91-.036,9.821,0a2.7,2.7,0,0,1,2.764,2.761q.037,3.525,0,7.05a2.666,2.666,0,0,1-2.693,2.737c-1.5.035-3.01-.022-4.513.032a1.742,1.742,0,0,0-1.067.478c-.8.8-1.542,1.666-2.283,2.525a3.408,3.408,0,0,0-.368.7l-.413-.26m2.6-12.739c0,.626-.016,1.151.005,1.675.016.408-.141.574-.554.557-.545-.022-1.092-.006-1.68-.006v1.733c.176.027.3.058.433.065.549.031,1.32-.152,1.589.136.3.326.194,1.073.2,1.637.008.8.593.488.971.522.4.036.881.133.847-.571-.025-.522-.16-1.262.114-1.515.316-.292,1.027-.19,1.567-.2.434-.005.637-.14.609-.594-.023-.384,0-.772,0-1.253H45.649V7.366Z" transform="translate(-21.444 -6.251)" fill="#ce0e2d"/>
      <path id="Path_7702" data-name="Path 7702" d="M6.149,32.772A8.82,8.82,0,0,1,.235,29.645c-.344-.373-.318-.509.121-.779.889-.545,1.789-1.072,2.669-1.629a.514.514,0,0,1,.749.087,4.455,4.455,0,0,0,6.6-.041.523.523,0,0,1,.788-.069q1.284.893,2.591,1.752c.342.225.359.43.089.732a9.973,9.973,0,0,1-7.694,3.075" transform="translate(1.757 -16.024)" fill="#ce0e2d"/>
    </g>
  </g>
</svg>
