<?xml version="1.0" encoding="utf-8"?>
<!-- Generator: Adobe Illustrator 27.6.1, SVG Export Plug-In . SVG Version: 6.00 Build 0)  -->
<svg version="1.1" xmlns="http://www.w3.org/2000/svg" xmlns:xlink="http://www.w3.org/1999/xlink" x="0px" y="0px"
	 viewBox="0 0 50 50" style="enable-background:new 0 0 50 50;" xml:space="preserve">
<style type="text/css">
	.st0{fill:#151515;}
	.st1{fill:#FFFFFF;}
	.st2{fill:#231F20;}
	.st3{fill:#A6A8AB;}
	.st4{fill:none;stroke:#FFFFFF;stroke-width:1.5;}
	.st5{fill:#161616;}
	.st6{fill:none;stroke:#FFFFFF;stroke-width:1.7649;stroke-linecap:round;}
	.st7{fill:#6B6B6B;stroke:#FFFFFF;stroke-miterlimit:10;}
	.st8{fill:#555759;}
	.st9{fill:none;stroke:#000000;}
	.st10{fill:none;stroke:#AFAFAF;stroke-width:0.1;}
	.st11{fill:#E8E8E8;}
	.st12{fill:#2E2A24;}
	.st13{fill:none;stroke:#FFFFFF;stroke-linecap:round;}
	.st14{fill:#C8102E;}
	.st15{fill:#555759;stroke:#555759;stroke-width:0.1;}
	.st16{fill:#707070;}
	.st17{fill-rule:evenodd;clip-rule:evenodd;fill:#555759;}
	.st18{opacity:0.999;}
</style>
<g id="Layer_1">
	<g>
		<path class="st1" d="M45.82,50H4.18C1.87,50,0,48.13,0,45.82V4.18C0,1.87,1.87,0,4.18,0h41.64C48.13,0,50,1.87,50,4.18v41.64
			C50,48.13,48.13,50,45.82,50z"/>
		<g id="Group_172" class="st18">
			<path id="Path_33" d="M5.96,32.1c0.15-0.39,0.34-0.77,0.57-1.13C7.1,30.24,8.21,30.07,9,30.61c0.3,0.2,0.52,0.48,0.64,0.8
				c0.17,0.39,0.26,0.8,0.27,1.21c0.03,1.42,0.01,2.84,0.01,4.36c0.26-0.26,0.47-0.48,0.67-0.69c2.42-2.54,4.83-5.07,7.25-7.61
				c0.58-0.74,1.69-0.9,2.49-0.37c0.1,0.06,0.18,0.14,0.26,0.22c0.85,0.84,0.9,2.13,0.11,3.01c-2.12,2.23-4.25,4.46-6.37,6.69
				c-0.5,0.53-1.02,1.04-1.53,1.56l0.04,0.09c0.1,0,0.2,0.01,0.3,0.01c1.27,0,2.53,0,3.79,0c0.79-0.03,1.53,0.36,1.9,1.01
				c0.65,1,0.29,2.29-0.79,2.89c-0.1,0.05-0.2,0.1-0.3,0.14c-0.1,0.04-0.2,0.08-0.3,0.13H7.65c-0.09-0.04-0.17-0.09-0.27-0.13
				c-0.46-0.15-0.85-0.46-1.08-0.85c-0.13-0.24-0.24-0.48-0.34-0.73L5.96,32.1z"/>
			<path id="Path_35" d="M32.54,44.05c-0.36-0.16-0.7-0.35-1.02-0.57c-0.9-0.81-0.92-2.14-0.05-2.97c0.14-0.13,0.29-0.24,0.45-0.33
				c0.37-0.17,0.77-0.27,1.18-0.28c1.23-0.04,2.46-0.01,3.7-0.01h0.41c-0.34-0.37-0.62-0.67-0.91-0.97l-4.27-4.48
				c-0.89-0.94-1.78-1.87-2.68-2.81c-0.82-0.83-0.87-2.09-0.12-2.98c0.61-0.73,1.75-0.86,2.54-0.29c0.12,0.09,0.23,0.19,0.33,0.31
				c1.43,1.48,2.85,2.99,4.28,4.48l3.49,3.66c0.04,0.04,0.09,0.08,0.18,0.16v-0.39c0-1.34,0-2.68,0-4.01
				c-0.12-1.06,0.66-2.03,1.79-2.24c0.96-0.06,1.83,0.54,2.04,1.4c0.04,0.13,0.09,0.25,0.13,0.38v10.25
				c-0.17,0.35-0.36,0.69-0.56,1.01c-0.31,0.34-0.72,0.58-1.18,0.69L32.54,44.05z"/>
			<g id="Group_172_00000084516709610301806170000011487243890437311400_" class="st18">
				<path id="Path_33_00000033353039871199865940000002967637261856945566_" d="M44.04,17.93c-0.15,0.39-0.34,0.77-0.57,1.13
					c-0.58,0.73-1.68,0.89-2.48,0.36c-0.3-0.2-0.52-0.48-0.64-0.8c-0.17-0.39-0.26-0.8-0.27-1.21c-0.03-1.42-0.01-2.84-0.01-4.36
					c-0.26,0.26-0.47,0.48-0.67,0.69c-2.42,2.54-4.83,5.07-7.25,7.61c-0.58,0.74-1.69,0.9-2.49,0.37c-0.1-0.06-0.18-0.14-0.26-0.22
					c-0.85-0.84-0.9-2.13-0.11-3.01c2.12-2.23,4.25-4.46,6.37-6.69c0.5-0.53,1.02-1.04,1.53-1.56l-0.04-0.09
					c-0.1,0-0.2-0.01-0.3-0.01c-1.27,0-2.53,0-3.79,0c-0.79,0.03-1.53-0.36-1.9-1.01c-0.65-1-0.29-2.29,0.79-2.89
					c0.1-0.05,0.2-0.1,0.3-0.14c0.1-0.04,0.2-0.08,0.3-0.13h9.81c0.09,0.04,0.17,0.09,0.27,0.13c0.46,0.15,0.85,0.46,1.08,0.85
					c0.13,0.24,0.24,0.48,0.34,0.73L44.04,17.93z"/>
				<path id="Path_35_00000058574293706965132250000017933752769239811509_" d="M17.46,5.97c0.36,0.16,0.7,0.35,1.02,0.57
					c0.9,0.81,0.92,2.14,0.05,2.97c-0.14,0.13-0.29,0.24-0.45,0.33c-0.37,0.17-0.77,0.27-1.18,0.28c-1.23,0.04-2.46,0.01-3.7,0.01
					h-0.41c0.34,0.37,0.62,0.67,0.91,0.97l4.27,4.48c0.89,0.94,1.78,1.87,2.68,2.81c0.82,0.83,0.87,2.09,0.12,2.98
					c-0.61,0.73-1.75,0.86-2.54,0.29c-0.12-0.09-0.23-0.19-0.33-0.31c-1.43-1.48-2.85-2.99-4.28-4.48l-3.49-3.66
					c-0.04-0.04-0.09-0.08-0.18-0.16v0.39c0,1.34,0,2.68,0,4.01c0.12,1.06-0.66,2.03-1.79,2.24c-0.96,0.06-1.83-0.54-2.04-1.4
					C6.05,18.19,6,18.06,5.96,17.94V7.69C6.13,7.34,6.32,7,6.52,6.67C6.83,6.33,7.24,6.09,7.7,5.98L17.46,5.97z"/>
			</g>
		</g>
	</g>
</g>
<g id="Isolation_Mode">
</g>
</svg>
